<svg xmlns="http://www.w3.org/2000/svg"  shape-rendering="crispEdges" xmlns:xlink="http://www.w3.org/1999/xlink" width="2.768in" height="1.368in" viewBox="4016 3020 276.8 136.8">      <style type="text/css">
      path, polyline, polygon { stroke-linejoin: round;}
      path, polyline, polygon, line { stroke-linecap: round;}
      rect, circle, ellipse, polyline, polygon, line, path { shape-rendering: crispEdges;}
      *[layerid="0"] { stroke: #FFFFFF; FILL: #FFFFFF;}
        *[layerid="1"] { stroke: #FF0000; fill: #FF0000;}        *[layerid="2"] { stroke: #0000FF; fill: #0000FF;}        *[layerid="3"] { stroke: #FFFF00; fill: #FFFF00;}        *[layerid="4"] { stroke: #808000; fill: #808000;}        *[layerid="5"] { stroke: #808080; fill: #808080;}        *[layerid="6"] { stroke: #800000; fill: #800000;}        *[layerid="7"] { stroke: #800080; fill: #800080;}        *[layerid="8"] { stroke: #AA00FF; fill: #AA00FF;}        *[layerid="9"] { stroke: #6464FF; fill: #6464FF;}        *[layerid="10"] { stroke: #FF00FF; fill: #FF00FF;}        *[layerid="11"] { stroke: #C0C0C0; fill: #C0C0C0;}        *[layerid="12"] { stroke: #FFFFFF; fill: #FFFFFF;}        *[layerid="13"] { stroke: #33CC99; fill: #33CC99;}        *[layerid="14"] { stroke: #5555FF; fill: #5555FF;}        *[layerid="15"] { stroke: #F022F0; fill: #F022F0;}        *[layerid="21"] { stroke: #800000; fill: #800000;}        *[layerid="22"] { stroke: #008000; fill: #008000;}        *[layerid="23"] { stroke: #00FF00; fill: #00FF00;}        *[layerid="24"] { stroke: #000080; fill: #000080;}          *[fill="none"] { fill: none; }
      *[stroke="none"] { stroke: none;}
      g[c_partid="part_pad"] > * + circle { fill: #222222;}
      g[c_partid="part_via"] > * + circle { fill: #222222;}
	g[c_partid="part_pad"] > polyline:nth-child(2) {stroke: #222222;}
	  </style><g >   <rect x="4016" y="3020" width="276.8" height="136.8" fill="#000000" stroke="none"/> <polyline points="4251 3045 4251 3065 4256 3070 4256 3101 4261 3110 4261 3125 4261 3125 4261 3125" stroke-width="1"   stroke-linecap="round" fill="none" layerid="2"/> <polyline points="4261 3045 4261 3065 4266 3070 4266 3101 4271 3110 4271 3125" stroke-width="1"   stroke-linecap="round" fill="none" layerid="2"/> <polyline points="4221 3125 4241 3125" stroke-width="1"   stroke-linecap="round" fill="none" layerid="2"/> <polyline points="4231 3096 4231 3125" stroke-width="1"   stroke-linecap="round" fill="none" layerid="2"/> <polyline points="4201 3125 4181 3105" stroke-width="1"   stroke-linecap="round" fill="none" layerid="2"/> <polyline points="4126 3080 4225 3080 4231 3086 4231 3105" stroke-width="1"   stroke-linecap="round" fill="none" layerid="2"/> <polyline points="4231 3035 4231 3045" stroke-width="1"   stroke-linecap="round" fill="none" layerid="2"/> <polyline points="4251 3125 4251 3130 4246 3135 4181 3135 4171 3125" stroke-width="1"   stroke-linecap="round" fill="none" layerid="1"/> <polyline points="4211 3125 4211 3135" stroke-width="1"   stroke-linecap="round" fill="none" layerid="1"/> <polyline points="4191 3125 4191 3105" stroke-width="1"   stroke-linecap="round" fill="none" layerid="1"/> <polyline points="4161 3125 4160 3125 4151 3134 4142.26 3134 4141 3132.74" stroke-width="1"   stroke-linecap="round" fill="none" layerid="1"/> <polyline points="4221 3035 4221 3045" stroke-width="1"   stroke-linecap="round" fill="none" layerid="1"/> <polyline points="4151 3075 4126 3100" stroke-width="1"   stroke-linecap="round" fill="none" layerid="1"/> <polyline points="4126 3090 4151 3065" stroke-width="1"   stroke-linecap="round" fill="none" layerid="1"/> <polyline points="4126 3070 4136 3070 4151 3055" stroke-width="1"   stroke-linecap="round" fill="none" layerid="1"/> <polyline points="4141 3117 4141 3115 4151 3105" stroke-width="1"   stroke-linecap="round" fill="none" layerid="1"/> <polyline points="4251 3125 4251 3105" stroke-width="1"   stroke-linecap="round" fill="none" layerid="1"/> <polyline points="4027 3030 4277 3030 4277 3140 4027 3140 4027 3030" stroke-width="1"   stroke-linecap="round" fill="none" layerid="10"/><path d="M 4147.55 3124.87 L 4151.84 3124.87 M 4147.55 3124.87 L 4147.55 3123.03 L 4147.75 3122.42 L 4147.95 3122.21 L 4148.36 3122.01 L 4148.77 3122.01 L 4149.18 3122.21 L 4149.39 3122.42 L 4149.59 3123.03 L 4149.59 3124.87 M 4149.59 3123.44 L 4151.84 3122.01 M 4148.36 3120.66 L 4148.16 3120.25 L 4147.55 3119.63 L 4151.84 3119.63" fill="none" layerid="3"  stroke-linecap="round" stroke-width="0.7" /> <polyline points="4144.622 3120.933 4144.622 3128.807" stroke-width="1"   stroke-linecap="round" fill="none" layerid="3"/> <polyline points="4137.339 3120.933 4137.339 3128.807" stroke-width="1"   stroke-linecap="round" fill="none" layerid="3"/> <polyline points="4144.622 3128.807 4137.339 3128.807" stroke-width="1"   stroke-linecap="round" fill="none" layerid="3"/> <polyline points="4144.622 3120.933 4137.339 3120.933" stroke-width="1"   stroke-linecap="round" fill="none" layerid="3"/>      <g c_partid="part_pad" c_type="pinpart" layerid="11" c_etype="pinpart">  <ellipse  xmlns="http://www.w3.org/2000/svg" cx="4141" cy="3117" rx="3" ry="3" stroke-width="0"  />  <circle cx="4141" cy="3117" r="1.18" stroke-width="0" /></g>      <g c_partid="part_pad" c_type="pinpart" layerid="11" c_etype="pinpart">  <ellipse  xmlns="http://www.w3.org/2000/svg" cx="4141" cy="3132.74" rx="3" ry="3" stroke-width="0"  />  <circle cx="4141" cy="3132.74" r="1.18" stroke-width="0" /></g><path d="M 4133.55 3085 L 4136.61 3085 L 4137.23 3084.8 L 4137.64 3084.39 L 4137.84 3083.77 L 4137.84 3083.36 L 4137.64 3082.75 L 4137.23 3082.34 L 4136.61 3082.14 L 4133.55 3082.14 M 4134.36 3080.79 L 4134.16 3080.38 L 4133.55 3079.76 L 4137.84 3079.76" fill="none" layerid="3"  stroke-linecap="round" stroke-width="0.7" /> <polyline points="4131 3140 4026 3140" stroke-width="1"   stroke-linecap="round" fill="none" layerid="3"/> <polyline points="4131 3030 4026 3030" stroke-width="1"   stroke-linecap="round" fill="none" layerid="3"/> <polyline points="4131 3030 4131 3140" stroke-width="1"   stroke-linecap="round" fill="none" layerid="3"/> <polyline points="4026 3030 4026 3140" stroke-width="1"   stroke-linecap="round" fill="none" layerid="3"/>      <circle cx="4081" cy="3090" r="27.5" layerid="3" stroke-width="1" fill="none" />      <circle cx="4041" cy="3115" r="2.5" layerid="3" stroke-width="1" fill="none" />      <circle cx="4041" cy="3125" r="2.5" layerid="3" stroke-width="1" fill="none" />      <circle cx="4041" cy="3135" r="2.5" layerid="3" stroke-width="1" fill="none" />      <g c_partid="part_pad" c_type="pinpart" layerid="11" c_etype="pinpart">  <ellipse  xmlns="http://www.w3.org/2000/svg" cx="4126" cy="3060" rx="3" ry="3" stroke-width="0"  />  <circle cx="4126" cy="3060" r="1.8" stroke-width="0" /></g>      <g c_partid="part_pad" c_type="pinpart" layerid="11" c_etype="pinpart">  <ellipse  xmlns="http://www.w3.org/2000/svg" cx="4126" cy="3070" rx="3" ry="3" stroke-width="0"  />  <circle cx="4126" cy="3070" r="1.8" stroke-width="0" /></g>      <g c_partid="part_pad" c_type="pinpart" layerid="11" c_etype="pinpart">  <ellipse  xmlns="http://www.w3.org/2000/svg" cx="4126" cy="3080" rx="3" ry="3" stroke-width="0"  />  <circle cx="4126" cy="3080" r="1.8" stroke-width="0" /></g>      <g c_partid="part_pad" c_type="pinpart" layerid="11" c_etype="pinpart">  <ellipse  xmlns="http://www.w3.org/2000/svg" cx="4126" cy="3090" rx="3" ry="3" stroke-width="0"  />  <circle cx="4126" cy="3090" r="1.8" stroke-width="0" /></g>      <g c_partid="part_pad" c_type="pinpart" layerid="11" c_etype="pinpart">  <ellipse  xmlns="http://www.w3.org/2000/svg" cx="4126" cy="3100" rx="3" ry="3" stroke-width="0"  />  <circle cx="4126" cy="3100" r="1.8" stroke-width="0" /></g>      <g c_partid="part_pad" c_type="pinpart" layerid="11" c_etype="pinpart">  <ellipse  xmlns="http://www.w3.org/2000/svg" cx="4126" cy="3110" rx="3" ry="3" stroke-width="0"  />  <circle cx="4126" cy="3110" r="1.8" stroke-width="0" /></g>      <g c_partid="part_pad" c_type="pinpart" layerid="11" c_etype="pinpart">  <ellipse  xmlns="http://www.w3.org/2000/svg" cx="4121" cy="3040" rx="6" ry="6" stroke-width="0"  />  <circle cx="4121" cy="3040" r="2.5" stroke-width="0" /></g>      <g c_partid="part_pad" c_type="pinpart" layerid="11" c_etype="pinpart">  <ellipse  xmlns="http://www.w3.org/2000/svg" cx="4036" cy="3040" rx="6" ry="6" stroke-width="0"  />  <circle cx="4036" cy="3040" r="2.5" stroke-width="0" /></g>      <g c_partid="part_pad" c_type="pinpart" layerid="11" c_etype="pinpart">  <ellipse  xmlns="http://www.w3.org/2000/svg" cx="4031" cy="3070" rx="3" ry="3" stroke-width="0"  />  <circle cx="4031" cy="3070" r="1.8" stroke-width="0" /></g>      <g c_partid="part_pad" c_type="pinpart" layerid="11" c_etype="pinpart">  <ellipse  xmlns="http://www.w3.org/2000/svg" cx="4031" cy="3080" rx="3" ry="3" stroke-width="0"  />  <circle cx="4031" cy="3080" r="1.8" stroke-width="0" /></g>      <g c_partid="part_pad" c_type="pinpart" layerid="11" c_etype="pinpart">  <ellipse  xmlns="http://www.w3.org/2000/svg" cx="4031" cy="3090" rx="3" ry="3" stroke-width="0"  />  <circle cx="4031" cy="3090" r="1.8" stroke-width="0" /></g>      <g c_partid="part_pad" c_type="pinpart" layerid="11" c_etype="pinpart">  <ellipse  xmlns="http://www.w3.org/2000/svg" cx="4031" cy="3100" rx="3" ry="3" stroke-width="0"  />  <circle cx="4031" cy="3100" r="1.8" stroke-width="0" /></g>      <g c_partid="part_pad" c_type="pinpart" layerid="11" c_etype="pinpart">  <ellipse  xmlns="http://www.w3.org/2000/svg" cx="4031" cy="3060" rx="3" ry="3" stroke-width="0"  />  <circle cx="4031" cy="3060" r="1.8" stroke-width="0" /></g>      <g c_partid="part_pad" c_type="pinpart" layerid="11" c_etype="pinpart">  <ellipse  xmlns="http://www.w3.org/2000/svg" cx="4126" cy="3120" rx="3" ry="3" stroke-width="0"  />  <circle cx="4126" cy="3120" r="1.8" stroke-width="0" /></g><path d="M 4053.55 3040.64 L 4053.55 3048.27 M 4051 3040.64 L 4056.09 3040.64 M 4058.49 3040.64 L 4058.49 3048.27 M 4060.89 3040.64 L 4060.89 3048.27 M 4060.89 3040.64 L 4065.98 3048.27 M 4065.98 3040.64 L 4065.98 3048.27 M 4068.38 3040.64 L 4071.29 3044.27 L 4071.29 3048.27 M 4074.2 3040.64 L 4071.29 3044.27 M 4082.2 3040.64 L 4082.2 3048.27 M 4082.2 3040.64 L 4085.47 3040.64 L 4086.56 3041 L 4086.93 3041.36 L 4087.29 3042.09 L 4087.29 3042.82 L 4086.93 3043.55 L 4086.56 3043.91 L 4085.47 3044.27 L 4082.2 3044.27 M 4084.75 3044.27 L 4087.29 3048.27 M 4092.24 3040.64 L 4092.24 3048.27 M 4089.69 3040.64 L 4094.78 3040.64 M 4102.64 3042.45 L 4102.27 3041.73 L 4101.55 3041 L 4100.82 3040.64 L 4099.36 3040.64 L 4098.64 3041 L 4097.91 3041.73 L 4097.55 3042.45 L 4097.18 3043.55 L 4097.18 3045.36 L 4097.55 3046.45 L 4097.91 3047.18 L 4098.64 3047.91 L 4099.36 3048.27 L 4100.82 3048.27 L 4101.55 3047.91 L 4102.27 3047.18 L 4102.64 3046.45" fill="none" layerid="3"  stroke-linecap="round" stroke-width="0.8" /><path d="M 4111 3057.82 L 4111 3061.64 M 4111 3057.82 L 4112.64 3057.82 L 4113.18 3058 L 4113.36 3058.18 L 4113.55 3058.55 L 4113.55 3058.91 L 4113.36 3059.27 L 4113.18 3059.45 L 4112.64 3059.64 M 4111 3059.64 L 4112.64 3059.64 L 4113.18 3059.82 L 4113.36 3060 L 4113.55 3060.36 L 4113.55 3060.91 L 4113.36 3061.27 L 4113.18 3061.45 L 4112.64 3061.64 L 4111 3061.64 M 4116.2 3057.82 L 4114.75 3061.64 M 4116.2 3057.82 L 4117.65 3061.64 M 4115.29 3060.36 L 4117.11 3060.36 M 4120.13 3057.82 L 4120.13 3061.64 M 4118.85 3057.82 L 4121.4 3057.82" fill="none" layerid="3"  stroke-linecap="round" stroke-width="0.8" /><path d="M 4113.73 3068.73 L 4113.55 3068.36 L 4113.18 3068 L 4112.82 3067.82 L 4112.09 3067.82 L 4111.73 3068 L 4111.36 3068.36 L 4111.18 3068.73 L 4111 3069.27 L 4111 3070.18 L 4111.18 3070.73 L 4111.36 3071.09 L 4111.73 3071.45 L 4112.09 3071.64 L 4112.82 3071.64 L 4113.18 3071.45 L 4113.55 3071.09 L 4113.73 3070.73 L 4113.73 3070.18 M 4112.82 3070.18 L 4113.73 3070.18 M 4114.93 3067.82 L 4114.93 3071.64 M 4114.93 3067.82 L 4117.47 3071.64 M 4117.47 3067.82 L 4117.47 3071.64 M 4118.67 3067.82 L 4118.67 3071.64 M 4118.67 3067.82 L 4119.95 3067.82 L 4120.49 3068 L 4120.85 3068.36 L 4121.04 3068.73 L 4121.22 3069.27 L 4121.22 3070.18 L 4121.04 3070.73 L 4120.85 3071.09 L 4120.49 3071.45 L 4119.95 3071.64 L 4118.67 3071.64" fill="none" layerid="3"  stroke-linecap="round" stroke-width="0.8" /><path d="M 4111 3077.82 L 4112.45 3081.64 M 4113.91 3077.82 L 4112.45 3081.64 M 4117.84 3078.73 L 4117.65 3078.36 L 4117.29 3078 L 4116.93 3077.82 L 4116.2 3077.82 L 4115.84 3078 L 4115.47 3078.36 L 4115.29 3078.73 L 4115.11 3079.27 L 4115.11 3080.18 L 4115.29 3080.73 L 4115.47 3081.09 L 4115.84 3081.45 L 4116.2 3081.64 L 4116.93 3081.64 L 4117.29 3081.45 L 4117.65 3081.09 L 4117.84 3080.73 M 4121.76 3078.73 L 4121.58 3078.36 L 4121.22 3078 L 4120.85 3077.82 L 4120.13 3077.82 L 4119.76 3078 L 4119.4 3078.36 L 4119.22 3078.73 L 4119.04 3079.27 L 4119.04 3080.18 L 4119.22 3080.73 L 4119.4 3081.09 L 4119.76 3081.45 L 4120.13 3081.64 L 4120.85 3081.64 L 4121.22 3081.45 L 4121.58 3081.09 L 4121.76 3080.73" fill="none" layerid="3"  stroke-linecap="round" stroke-width="0.8" /><path d="M 4113.55 3088.36 L 4113.18 3088 L 4112.64 3087.82 L 4111.91 3087.82 L 4111.36 3088 L 4111 3088.36 L 4111 3088.73 L 4111.18 3089.09 L 4111.36 3089.27 L 4111.73 3089.45 L 4112.82 3089.82 L 4113.18 3090 L 4113.36 3090.18 L 4113.55 3090.55 L 4113.55 3091.09 L 4113.18 3091.45 L 4112.64 3091.64 L 4111.91 3091.64 L 4111.36 3091.45 L 4111 3091.09 M 4114.75 3087.82 L 4114.75 3091.64 M 4114.75 3087.82 L 4116.02 3087.82 L 4116.56 3088 L 4116.93 3088.36 L 4117.11 3088.73 L 4117.29 3089.27 L 4117.29 3090.18 L 4117.11 3090.73 L 4116.93 3091.09 L 4116.56 3091.45 L 4116.02 3091.64 L 4114.75 3091.64 M 4119.95 3087.82 L 4118.49 3091.64 M 4119.95 3087.82 L 4121.4 3091.64 M 4119.04 3090.36 L 4120.85 3090.36" fill="none" layerid="3"  stroke-linecap="round" stroke-width="0.8" /><path d="M 4113.55 3098.36 L 4113.18 3098 L 4112.64 3097.82 L 4111.91 3097.82 L 4111.36 3098 L 4111 3098.36 L 4111 3098.73 L 4111.18 3099.09 L 4111.36 3099.27 L 4111.73 3099.45 L 4112.82 3099.82 L 4113.18 3100 L 4113.36 3100.18 L 4113.55 3100.55 L 4113.55 3101.09 L 4113.18 3101.45 L 4112.64 3101.64 L 4111.91 3101.64 L 4111.36 3101.45 L 4111 3101.09 M 4117.47 3098.73 L 4117.29 3098.36 L 4116.93 3098 L 4116.56 3097.82 L 4115.84 3097.82 L 4115.47 3098 L 4115.11 3098.36 L 4114.93 3098.73 L 4114.75 3099.27 L 4114.75 3100.18 L 4114.93 3100.73 L 4115.11 3101.09 L 4115.47 3101.45 L 4115.84 3101.64 L 4116.56 3101.64 L 4116.93 3101.45 L 4117.29 3101.09 L 4117.47 3100.73 M 4118.67 3097.82 L 4118.67 3101.64 M 4118.67 3101.64 L 4120.85 3101.64" fill="none" layerid="3"  stroke-linecap="round" stroke-width="0.8" /><path d="M 4111 3107.82 L 4111 3111.64 M 4111 3107.82 L 4112.27 3107.82 L 4112.82 3108 L 4113.18 3108.36 L 4113.36 3108.73 L 4113.55 3109.27 L 4113.55 3110.18 L 4113.36 3110.73 L 4113.18 3111.09 L 4112.82 3111.45 L 4112.27 3111.64 L 4111 3111.64 M 4117.29 3108.36 L 4116.93 3108 L 4116.38 3107.82 L 4115.65 3107.82 L 4115.11 3108 L 4114.75 3108.36 L 4114.75 3108.73 L 4114.93 3109.09 L 4115.11 3109.27 L 4115.47 3109.45 L 4116.56 3109.82 L 4116.93 3110 L 4117.11 3110.18 L 4117.29 3110.55 L 4117.29 3111.09 L 4116.93 3111.45 L 4116.38 3111.64 L 4115.65 3111.64 L 4115.11 3111.45 L 4114.75 3111.09" fill="none" layerid="3"  stroke-linecap="round" stroke-width="0.8" /><path d="M 4113.55 3118.36 L 4113.18 3118 L 4112.64 3117.82 L 4111.91 3117.82 L 4111.36 3118 L 4111 3118.36 L 4111 3118.73 L 4111.18 3119.09 L 4111.36 3119.27 L 4111.73 3119.45 L 4112.82 3119.82 L 4113.18 3120 L 4113.36 3120.18 L 4113.55 3120.55 L 4113.55 3121.09 L 4113.18 3121.45 L 4112.64 3121.64 L 4111.91 3121.64 L 4111.36 3121.45 L 4111 3121.09 M 4115.84 3117.82 L 4115.47 3118 L 4115.11 3118.36 L 4114.93 3118.73 L 4114.75 3119.27 L 4114.75 3120.18 L 4114.93 3120.73 L 4115.11 3121.09 L 4115.47 3121.45 L 4115.84 3121.64 L 4116.56 3121.64 L 4116.93 3121.45 L 4117.29 3121.09 L 4117.47 3120.73 L 4117.65 3120.18 L 4117.65 3119.27 L 4117.47 3118.73 L 4117.29 3118.36 L 4116.93 3118 L 4116.56 3117.82 L 4115.84 3117.82 M 4116.38 3120.91 L 4117.47 3122" fill="none" layerid="3"  stroke-linecap="round" stroke-width="0.8" /><path d="M 4046 3122.82 L 4046 3126.64 M 4046 3122.82 L 4047.27 3122.82 L 4047.82 3123 L 4048.18 3123.36 L 4048.36 3123.73 L 4048.55 3124.27 L 4048.55 3125.18 L 4048.36 3125.73 L 4048.18 3126.09 L 4047.82 3126.45 L 4047.27 3126.64 L 4046 3126.64 M 4052.29 3123.36 L 4051.93 3123 L 4051.38 3122.82 L 4050.65 3122.82 L 4050.11 3123 L 4049.75 3123.36 L 4049.75 3123.73 L 4049.93 3124.09 L 4050.11 3124.27 L 4050.47 3124.45 L 4051.56 3124.82 L 4051.93 3125 L 4052.11 3125.18 L 4052.29 3125.55 L 4052.29 3126.09 L 4051.93 3126.45 L 4051.38 3126.64 L 4050.65 3126.64 L 4050.11 3126.45 L 4049.75 3126.09" fill="none" layerid="3"  stroke-linecap="round" stroke-width="0.8" /><path d="M 4048.73 3133.73 L 4048.55 3133.36 L 4048.18 3133 L 4047.82 3132.82 L 4047.09 3132.82 L 4046.73 3133 L 4046.36 3133.36 L 4046.18 3133.73 L 4046 3134.27 L 4046 3135.18 L 4046.18 3135.73 L 4046.36 3136.09 L 4046.73 3136.45 L 4047.09 3136.64 L 4047.82 3136.64 L 4048.18 3136.45 L 4048.55 3136.09 L 4048.73 3135.73 L 4048.73 3135.18 M 4047.82 3135.18 L 4048.73 3135.18 M 4049.93 3132.82 L 4049.93 3136.64 M 4049.93 3132.82 L 4052.47 3136.64 M 4052.47 3132.82 L 4052.47 3136.64 M 4053.67 3132.82 L 4053.67 3136.64 M 4053.67 3132.82 L 4054.95 3132.82 L 4055.49 3133 L 4055.85 3133.36 L 4056.04 3133.73 L 4056.22 3134.27 L 4056.22 3135.18 L 4056.04 3135.73 L 4055.85 3136.09 L 4055.49 3136.45 L 4054.95 3136.64 L 4053.67 3136.64" fill="none" layerid="3"  stroke-linecap="round" stroke-width="0.8" /><path d="M 4046 3112.82 L 4047.45 3116.64 M 4048.91 3112.82 L 4047.45 3116.64 M 4052.84 3113.73 L 4052.65 3113.36 L 4052.29 3113 L 4051.93 3112.82 L 4051.2 3112.82 L 4050.84 3113 L 4050.47 3113.36 L 4050.29 3113.73 L 4050.11 3114.27 L 4050.11 3115.18 L 4050.29 3115.73 L 4050.47 3116.09 L 4050.84 3116.45 L 4051.2 3116.64 L 4051.93 3116.64 L 4052.29 3116.45 L 4052.65 3116.09 L 4052.84 3115.73 M 4056.76 3113.73 L 4056.58 3113.36 L 4056.22 3113 L 4055.85 3112.82 L 4055.13 3112.82 L 4054.76 3113 L 4054.4 3113.36 L 4054.22 3113.73 L 4054.04 3114.27 L 4054.04 3115.18 L 4054.22 3115.73 L 4054.4 3116.09 L 4054.76 3116.45 L 4055.13 3116.64 L 4055.85 3116.64 L 4056.22 3116.45 L 4056.58 3116.09 L 4056.76 3115.73" fill="none" layerid="3"  stroke-linecap="round" stroke-width="0.8" /><path d="M 4036 3097.82 L 4036 3101.64 M 4036 3097.82 L 4037.27 3097.82 L 4037.82 3098 L 4038.18 3098.36 L 4038.36 3098.73 L 4038.55 3099.27 L 4038.55 3100.18 L 4038.36 3100.73 L 4038.18 3101.09 L 4037.82 3101.45 L 4037.27 3101.64 L 4036 3101.64 M 4042.29 3098.36 L 4041.93 3098 L 4041.38 3097.82 L 4040.65 3097.82 L 4040.11 3098 L 4039.75 3098.36 L 4039.75 3098.73 L 4039.93 3099.09 L 4040.11 3099.27 L 4040.47 3099.45 L 4041.56 3099.82 L 4041.93 3100 L 4042.11 3100.18 L 4042.29 3100.55 L 4042.29 3101.09 L 4041.93 3101.45 L 4041.38 3101.64 L 4040.65 3101.64 L 4040.11 3101.45 L 4039.75 3101.09" fill="none" layerid="3"  stroke-linecap="round" stroke-width="0.8" /><path d="M 4038.73 3058.73 L 4038.55 3058.36 L 4038.18 3058 L 4037.82 3057.82 L 4037.09 3057.82 L 4036.73 3058 L 4036.36 3058.36 L 4036.18 3058.73 L 4036 3059.27 L 4036 3060.18 L 4036.18 3060.73 L 4036.36 3061.09 L 4036.73 3061.45 L 4037.09 3061.64 L 4037.82 3061.64 L 4038.18 3061.45 L 4038.55 3061.09 L 4038.73 3060.73 L 4038.73 3060.18 M 4037.82 3060.18 L 4038.73 3060.18 M 4039.93 3057.82 L 4039.93 3061.64 M 4039.93 3057.82 L 4042.47 3061.64 M 4042.47 3057.82 L 4042.47 3061.64 M 4043.67 3057.82 L 4043.67 3061.64 M 4043.67 3057.82 L 4044.95 3057.82 L 4045.49 3058 L 4045.85 3058.36 L 4046.04 3058.73 L 4046.22 3059.27 L 4046.22 3060.18 L 4046.04 3060.73 L 4045.85 3061.09 L 4045.49 3061.45 L 4044.95 3061.64 L 4043.67 3061.64" fill="none" layerid="3"  stroke-linecap="round" stroke-width="0.8" /><path d="M 4036 3067.82 L 4037.45 3071.64 M 4038.91 3067.82 L 4037.45 3071.64 M 4042.84 3068.73 L 4042.65 3068.36 L 4042.29 3068 L 4041.93 3067.82 L 4041.2 3067.82 L 4040.84 3068 L 4040.47 3068.36 L 4040.29 3068.73 L 4040.11 3069.27 L 4040.11 3070.18 L 4040.29 3070.73 L 4040.47 3071.09 L 4040.84 3071.45 L 4041.2 3071.64 L 4041.93 3071.64 L 4042.29 3071.45 L 4042.65 3071.09 L 4042.84 3070.73 M 4046.76 3068.73 L 4046.58 3068.36 L 4046.22 3068 L 4045.85 3067.82 L 4045.13 3067.82 L 4044.76 3068 L 4044.4 3068.36 L 4044.22 3068.73 L 4044.04 3069.27 L 4044.04 3070.18 L 4044.22 3070.73 L 4044.4 3071.09 L 4044.76 3071.45 L 4045.13 3071.64 L 4045.85 3071.64 L 4046.22 3071.45 L 4046.58 3071.09 L 4046.76 3070.73" fill="none" layerid="3"  stroke-linecap="round" stroke-width="0.8" /><path d="M 4038.55 3078.36 L 4038.18 3078 L 4037.64 3077.82 L 4036.91 3077.82 L 4036.36 3078 L 4036 3078.36 L 4036 3078.73 L 4036.18 3079.09 L 4036.36 3079.27 L 4036.73 3079.45 L 4037.82 3079.82 L 4038.18 3080 L 4038.36 3080.18 L 4038.55 3080.55 L 4038.55 3081.09 L 4038.18 3081.45 L 4037.64 3081.64 L 4036.91 3081.64 L 4036.36 3081.45 L 4036 3081.09 M 4039.75 3077.82 L 4039.75 3081.64 M 4039.75 3077.82 L 4041.02 3077.82 L 4041.56 3078 L 4041.93 3078.36 L 4042.11 3078.73 L 4042.29 3079.27 L 4042.29 3080.18 L 4042.11 3080.73 L 4041.93 3081.09 L 4041.56 3081.45 L 4041.02 3081.64 L 4039.75 3081.64 M 4044.95 3077.82 L 4043.49 3081.64 M 4044.95 3077.82 L 4046.4 3081.64 M 4044.04 3080.36 L 4045.85 3080.36" fill="none" layerid="3"  stroke-linecap="round" stroke-width="0.8" /><path d="M 4038.55 3088.36 L 4038.18 3088 L 4037.64 3087.82 L 4036.91 3087.82 L 4036.36 3088 L 4036 3088.36 L 4036 3088.73 L 4036.18 3089.09 L 4036.36 3089.27 L 4036.73 3089.45 L 4037.82 3089.82 L 4038.18 3090 L 4038.36 3090.18 L 4038.55 3090.55 L 4038.55 3091.09 L 4038.18 3091.45 L 4037.64 3091.64 L 4036.91 3091.64 L 4036.36 3091.45 L 4036 3091.09 M 4042.47 3088.73 L 4042.29 3088.36 L 4041.93 3088 L 4041.56 3087.82 L 4040.84 3087.82 L 4040.47 3088 L 4040.11 3088.36 L 4039.93 3088.73 L 4039.75 3089.27 L 4039.75 3090.18 L 4039.93 3090.73 L 4040.11 3091.09 L 4040.47 3091.45 L 4040.84 3091.64 L 4041.56 3091.64 L 4041.93 3091.45 L 4042.29 3091.09 L 4042.47 3090.73 M 4043.67 3087.82 L 4043.67 3091.64 M 4043.67 3091.64 L 4045.85 3091.64" fill="none" layerid="3"  stroke-linecap="round" stroke-width="0.8" /><path d="M 4084.27 3067.5 L 4078.55 3067.5 M 4078.55 3067.5 L 4078.55 3070.77 M 4084.27 3072.57 L 4078.55 3072.57 M 4084.27 3076.28 L 4078.55 3076.28 M 4084.27 3074.37 L 4084.27 3078.19 M 4084.27 3079.99 L 4078.55 3079.99 M 4084.27 3083.81 L 4078.55 3083.81 M 4081.55 3079.99 L 4081.55 3083.81 M 4084.27 3085.61 L 4078.55 3085.61 M 4084.27 3087.41 L 4080.18 3087.41 L 4079.36 3087.68 L 4078.82 3088.23 L 4078.55 3089.05 L 4078.55 3089.59 L 4078.82 3090.41 L 4079.36 3090.95 L 4080.18 3091.23 L 4084.27 3091.23 M 4084.27 3093.03 L 4078.55 3093.03 M 4084.27 3093.03 L 4078.55 3095.21 M 4084.27 3097.39 L 4078.55 3095.21 M 4084.27 3097.39 L 4078.55 3097.39 M 4084.27 3103.94 L 4084.27 3106.94 L 4082.09 3105.3 L 4082.09 3106.12 L 4081.82 3106.66 L 4081.55 3106.94 L 4080.73 3107.21 L 4080.18 3107.21 L 4079.36 3106.94 L 4078.82 3106.39 L 4078.55 3105.57 L 4078.55 3104.75 L 4078.82 3103.94 L 4079.09 3103.66 L 4079.64 3103.39 M 4084.27 3109.01 L 4078.55 3111.19 M 4084.27 3113.37 L 4078.55 3111.19" fill="none" layerid="3"  stroke-linecap="round" stroke-width="0.8" /><path d="M 4278.55 3075 L 4281.61 3075 L 4282.23 3074.8 L 4282.64 3074.39 L 4282.84 3073.77 L 4282.84 3073.36 L 4282.64 3072.75 L 4282.23 3072.34 L 4281.61 3072.14 L 4278.55 3072.14 M 4278.55 3068.74 L 4281.41 3070.79 L 4281.41 3067.72 M 4278.55 3068.74 L 4282.84 3068.74" fill="none" layerid="3"  stroke-linecap="round" stroke-width="0.7" /> <polyline points="4276 3040 4276 3110 4146 3110 4146 3040 4276 3040 4276 3040" stroke-width="1"   stroke-linecap="round" fill="none" layerid="3"/><path d="M 4262.64 3050.95 L 4259.77 3050.95 M 4262.64 3050 L 4262.64 3051.91 M 4262.64 3052.81 L 4259.77 3054.72 M 4262.64 3054.72 L 4259.77 3052.81 M 4262.64 3056.44 L 4262.5 3056.03 L 4262.09 3055.75 L 4261.41 3055.62 L 4261 3055.62 L 4260.32 3055.75 L 4259.91 3056.03 L 4259.77 3056.44 L 4259.77 3056.71 L 4259.91 3057.12 L 4260.32 3057.39 L 4261 3057.53 L 4261.41 3057.53 L 4262.09 3057.39 L 4262.5 3057.12 L 4262.64 3056.71 L 4262.64 3056.44" fill="none" layerid="3"  stroke-linecap="round" stroke-width="0.8" /><path d="M 4252.64 3050 L 4249.77 3050 M 4252.64 3050 L 4252.64 3051.23 L 4252.5 3051.64 L 4252.36 3051.77 L 4252.09 3051.91 L 4251.82 3051.91 L 4251.55 3051.77 L 4251.41 3051.64 L 4251.27 3051.23 L 4251.27 3050 M 4251.27 3050.95 L 4249.77 3051.91 M 4252.64 3052.81 L 4249.77 3054.72 M 4252.64 3054.72 L 4249.77 3052.81 M 4252.09 3055.62 L 4252.23 3055.89 L 4252.64 3056.3 L 4249.77 3056.3" fill="none" layerid="3"  stroke-linecap="round" stroke-width="0.8" /><path d="M 4242.64 3050 L 4239.77 3050 M 4242.64 3050 L 4242.64 3051.23 L 4242.5 3051.64 L 4242.36 3051.77 L 4242.09 3051.91 L 4241.82 3051.91 L 4241.55 3051.77 L 4241.41 3051.64 L 4241.27 3051.23 L 4241.27 3050 M 4241.27 3050.95 L 4239.77 3051.91 M 4242.23 3054.72 L 4242.5 3054.45 L 4242.64 3054.04 L 4242.64 3053.49 L 4242.5 3053.08 L 4242.23 3052.81 L 4241.95 3052.81 L 4241.68 3052.95 L 4241.55 3053.08 L 4241.41 3053.35 L 4241.14 3054.17 L 4241 3054.45 L 4240.86 3054.58 L 4240.59 3054.72 L 4240.18 3054.72 L 4239.91 3054.45 L 4239.77 3054.04 L 4239.77 3053.49 L 4239.91 3053.08 L 4240.18 3052.81 M 4242.64 3056.57 L 4239.77 3056.57 M 4242.64 3055.62 L 4242.64 3057.53" fill="none" layerid="3"  stroke-linecap="round" stroke-width="0.8" /><path d="M 4231.95 3052.05 L 4232.23 3051.91 L 4232.5 3051.64 L 4232.64 3051.36 L 4232.64 3050.82 L 4232.5 3050.55 L 4232.23 3050.27 L 4231.95 3050.14 L 4231.55 3050 L 4230.86 3050 L 4230.45 3050.14 L 4230.18 3050.27 L 4229.91 3050.55 L 4229.77 3050.82 L 4229.77 3051.36 L 4229.91 3051.64 L 4230.18 3051.91 L 4230.45 3052.05 L 4230.86 3052.05 M 4230.86 3051.36 L 4230.86 3052.05 M 4232.64 3052.95 L 4229.77 3052.95 M 4232.64 3052.95 L 4229.77 3054.85 M 4232.64 3054.85 L 4229.77 3054.85 M 4232.64 3055.75 L 4229.77 3055.75 M 4232.64 3055.75 L 4232.64 3056.71 L 4232.5 3057.12 L 4232.23 3057.39 L 4231.95 3057.53 L 4231.55 3057.66 L 4230.86 3057.66 L 4230.45 3057.53 L 4230.18 3057.39 L 4229.91 3057.12 L 4229.77 3056.71 L 4229.77 3055.75" fill="none" layerid="3"  stroke-linecap="round" stroke-width="0.8" /><path d="M 4221.95 3050.14 L 4222.09 3050.14 L 4222.36 3050.27 L 4222.5 3050.41 L 4222.64 3050.68 L 4222.64 3051.23 L 4222.5 3051.5 L 4222.36 3051.64 L 4222.09 3051.77 L 4221.82 3051.77 L 4221.55 3051.64 L 4221.14 3051.36 L 4219.77 3050 L 4219.77 3051.91" fill="none" layerid="3"  stroke-linecap="round" stroke-width="0.8" /><path d="M 4212.64 3050.27 L 4212.64 3051.77 L 4211.55 3050.95 L 4211.55 3051.36 L 4211.41 3051.64 L 4211.27 3051.77 L 4210.86 3051.91 L 4210.59 3051.91 L 4210.18 3051.77 L 4209.91 3051.5 L 4209.77 3051.09 L 4209.77 3050.68 L 4209.91 3050.27 L 4210.05 3050.14 L 4210.32 3050" fill="none" layerid="3"  stroke-linecap="round" stroke-width="0.8" /><path d="M 4202.64 3051.36 L 4200.73 3050 L 4200.73 3052.05 M 4202.64 3051.36 L 4199.77 3051.36" fill="none" layerid="3"  stroke-linecap="round" stroke-width="0.8" /><path d="M 4192.64 3051.64 L 4192.64 3050.27 L 4191.41 3050.14 L 4191.55 3050.27 L 4191.68 3050.68 L 4191.68 3051.09 L 4191.55 3051.5 L 4191.27 3051.77 L 4190.86 3051.91 L 4190.59 3051.91 L 4190.18 3051.77 L 4189.91 3051.5 L 4189.77 3051.09 L 4189.77 3050.68 L 4189.91 3050.27 L 4190.05 3050.14 L 4190.32 3050" fill="none" layerid="3"  stroke-linecap="round" stroke-width="0.8" /><path d="M 4182.23 3051.64 L 4182.5 3051.5 L 4182.64 3051.09 L 4182.64 3050.82 L 4182.5 3050.41 L 4182.09 3050.14 L 4181.41 3050 L 4180.73 3050 L 4180.18 3050.14 L 4179.91 3050.41 L 4179.77 3050.82 L 4179.77 3050.95 L 4179.91 3051.36 L 4180.18 3051.64 L 4180.59 3051.77 L 4180.73 3051.77 L 4181.14 3051.64 L 4181.41 3051.36 L 4181.55 3050.95 L 4181.55 3050.82 L 4181.41 3050.41 L 4181.14 3050.14 L 4180.73 3050" fill="none" layerid="3"  stroke-linecap="round" stroke-width="0.8" /><path d="M 4172.64 3051.91 L 4169.77 3050.55 M 4172.64 3050 L 4172.64 3051.91" fill="none" layerid="3"  stroke-linecap="round" stroke-width="0.8" /><path d="M 4262.64 3092.5 L 4259.77 3092.5 M 4262.64 3092.5 L 4262.64 3093.73 L 4262.5 3094.14 L 4262.36 3094.27 L 4262.09 3094.41 L 4261.82 3094.41 L 4261.55 3094.27 L 4261.41 3094.14 L 4261.27 3093.73 L 4261.27 3092.5 M 4261.27 3093.45 L 4259.77 3094.41 M 4262.64 3096.4 L 4259.77 3095.31 M 4262.64 3096.4 L 4259.77 3097.49 M 4260.73 3095.72 L 4260.73 3097.08 M 4262.64 3098.39 L 4259.77 3099.07 M 4262.64 3099.75 L 4259.77 3099.07 M 4262.64 3099.75 L 4259.77 3100.44 M 4262.64 3101.12 L 4259.77 3100.44" fill="none" layerid="3"  stroke-linecap="round" stroke-width="0.8" /><path d="M 4250.95 3095.55 L 4251.23 3095.41 L 4251.5 3095.14 L 4251.64 3094.86 L 4251.64 3094.32 L 4251.5 3094.05 L 4251.23 3093.77 L 4250.95 3093.64 L 4250.55 3093.5 L 4249.86 3093.5 L 4249.45 3093.64 L 4249.18 3093.77 L 4248.91 3094.05 L 4248.77 3094.32 L 4248.77 3094.86 L 4248.91 3095.14 L 4249.18 3095.41 L 4249.45 3095.55 L 4249.86 3095.55 M 4249.86 3094.86 L 4249.86 3095.55 M 4251.64 3096.45 L 4248.77 3096.45 M 4251.64 3096.45 L 4248.77 3098.35 M 4251.64 3098.35 L 4248.77 3098.35 M 4251.64 3099.25 L 4248.77 3099.25 M 4251.64 3099.25 L 4251.64 3100.21 L 4251.5 3100.62 L 4251.23 3100.89 L 4250.95 3101.03 L 4250.55 3101.16 L 4249.86 3101.16 L 4249.45 3101.03 L 4249.18 3100.89 L 4248.91 3100.62 L 4248.77 3100.21 L 4248.77 3099.25" fill="none" layerid="3"  stroke-linecap="round" stroke-width="0.8" /><path d="M 4242.64 3094 L 4239.77 3094 M 4242.64 3094 L 4242.64 3095.23 L 4242.5 3095.64 L 4242.36 3095.77 L 4242.09 3095.91 L 4241.82 3095.91 L 4241.55 3095.77 L 4241.41 3095.64 L 4241.27 3095.23 L 4241.27 3094 M 4241.27 3094.95 L 4239.77 3095.91 M 4242.23 3098.72 L 4242.5 3098.45 L 4242.64 3098.04 L 4242.64 3097.49 L 4242.5 3097.08 L 4242.23 3096.81 L 4241.95 3096.81 L 4241.68 3096.95 L 4241.55 3097.08 L 4241.41 3097.35 L 4241.14 3098.17 L 4241 3098.45 L 4240.86 3098.58 L 4240.59 3098.72 L 4240.18 3098.72 L 4239.91 3098.45 L 4239.77 3098.04 L 4239.77 3097.49 L 4239.91 3097.08 L 4240.18 3096.81 M 4242.64 3100.57 L 4239.77 3100.57 M 4242.64 3099.62 L 4242.64 3101.53" fill="none" layerid="3"  stroke-linecap="round" stroke-width="0.8" /><path d="M 4231.64 3093.5 L 4228.77 3094.59 M 4231.64 3095.68 L 4228.77 3094.59 M 4230.95 3098.63 L 4231.23 3098.49 L 4231.5 3098.22 L 4231.64 3097.95 L 4231.64 3097.4 L 4231.5 3097.13 L 4231.23 3096.85 L 4230.95 3096.72 L 4230.55 3096.58 L 4229.86 3096.58 L 4229.45 3096.72 L 4229.18 3096.85 L 4228.91 3097.13 L 4228.77 3097.4 L 4228.77 3097.95 L 4228.91 3098.22 L 4229.18 3098.49 L 4229.45 3098.63 M 4230.95 3101.57 L 4231.23 3101.44 L 4231.5 3101.16 L 4231.64 3100.89 L 4231.64 3100.35 L 4231.5 3100.07 L 4231.23 3099.8 L 4230.95 3099.66 L 4230.55 3099.53 L 4229.86 3099.53 L 4229.45 3099.66 L 4229.18 3099.8 L 4228.91 3100.07 L 4228.77 3100.35 L 4228.77 3100.89 L 4228.91 3101.16 L 4229.18 3101.44 L 4229.45 3101.57" fill="none" layerid="3"  stroke-linecap="round" stroke-width="0.8" /><path d="M 4222.14 3097.59 L 4219.27 3096.5 M 4222.14 3097.59 L 4219.27 3098.68 M 4220.23 3096.91 L 4220.23 3098.27 M 4222.14 3099.85 L 4222.14 3101.35 L 4221.05 3100.54 L 4221.05 3100.95 L 4220.91 3101.22 L 4220.77 3101.35 L 4220.36 3101.49 L 4220.09 3101.49 L 4219.68 3101.35 L 4219.41 3101.08 L 4219.27 3100.67 L 4219.27 3100.26 L 4219.41 3099.85 L 4219.55 3099.72 L 4219.82 3099.58" fill="none" layerid="3"  stroke-linecap="round" stroke-width="0.8" /><path d="M 4212.14 3097.59 L 4209.27 3096.5 M 4212.14 3097.59 L 4209.27 3098.68 M 4210.23 3096.91 L 4210.23 3098.27 M 4211.45 3099.72 L 4211.59 3099.72 L 4211.86 3099.85 L 4212 3099.99 L 4212.14 3100.26 L 4212.14 3100.81 L 4212 3101.08 L 4211.86 3101.22 L 4211.59 3101.35 L 4211.32 3101.35 L 4211.05 3101.22 L 4210.64 3100.95 L 4209.27 3099.58 L 4209.27 3101.49" fill="none" layerid="3"  stroke-linecap="round" stroke-width="0.8" /><path d="M 4202.64 3098.59 L 4199.77 3097.5 M 4202.64 3098.59 L 4199.77 3099.68 M 4200.73 3097.91 L 4200.73 3099.27 M 4202.09 3100.58 L 4202.23 3100.85 L 4202.64 3101.26 L 4199.77 3101.26" fill="none" layerid="3"  stroke-linecap="round" stroke-width="0.8" /><path d="M 4192.64 3098.59 L 4189.77 3097.5 M 4192.64 3098.59 L 4189.77 3099.68 M 4190.73 3097.91 L 4190.73 3099.27 M 4192.64 3101.4 L 4192.5 3100.99 L 4192.09 3100.72 L 4191.41 3100.58 L 4191 3100.58 L 4190.32 3100.72 L 4189.91 3100.99 L 4189.77 3101.4 L 4189.77 3101.67 L 4189.91 3102.08 L 4190.32 3102.35 L 4191 3102.49 L 4191.41 3102.49 L 4192.09 3102.35 L 4192.5 3102.08 L 4192.64 3101.67 L 4192.64 3101.4" fill="none" layerid="3"  stroke-linecap="round" stroke-width="0.8" /><path d="M 4182.09 3097.5 L 4182.23 3097.77 L 4182.64 3098.18 L 4179.77 3098.18 M 4182.64 3099.35 L 4182.64 3100.85 L 4181.55 3100.04 L 4181.55 3100.45 L 4181.41 3100.72 L 4181.27 3100.85 L 4180.86 3100.99 L 4180.59 3100.99 L 4180.18 3100.85 L 4179.91 3100.58 L 4179.77 3100.17 L 4179.77 3099.76 L 4179.91 3099.35 L 4180.05 3099.22 L 4180.32 3099.08" fill="none" layerid="3"  stroke-linecap="round" stroke-width="0.8" /><path d="M 4172.09 3097.5 L 4172.23 3097.77 L 4172.64 3098.18 L 4169.77 3098.18 M 4171.95 3099.22 L 4172.09 3099.22 L 4172.36 3099.35 L 4172.5 3099.49 L 4172.64 3099.76 L 4172.64 3100.31 L 4172.5 3100.58 L 4172.36 3100.72 L 4172.09 3100.85 L 4171.82 3100.85 L 4171.55 3100.72 L 4171.14 3100.45 L 4169.77 3099.08 L 4169.77 3100.99" fill="none" layerid="3"  stroke-linecap="round" stroke-width="0.8" /><path d="M 4157.09 3063.36 L 4156 3066.23 M 4157.09 3063.36 L 4158.18 3066.23 M 4156.41 3065.27 L 4157.77 3065.27 M 4160.45 3063.36 L 4159.08 3065.27 L 4161.13 3065.27 M 4160.45 3063.36 L 4160.45 3066.23" fill="none" layerid="3"  stroke-linecap="round" stroke-width="0.8" /><path d="M 4157.09 3073.36 L 4156 3076.23 M 4157.09 3073.36 L 4158.18 3076.23 M 4156.41 3075.27 L 4157.77 3075.27 M 4160.72 3073.36 L 4159.35 3073.36 L 4159.22 3074.59 L 4159.35 3074.45 L 4159.76 3074.32 L 4160.17 3074.32 L 4160.58 3074.45 L 4160.85 3074.73 L 4160.99 3075.14 L 4160.99 3075.41 L 4160.85 3075.82 L 4160.58 3076.09 L 4160.17 3076.23 L 4159.76 3076.23 L 4159.35 3076.09 L 4159.22 3075.95 L 4159.08 3075.68" fill="none" layerid="3"  stroke-linecap="round" stroke-width="0.8" /><path d="M 4157.09 3083.36 L 4156 3086.23 M 4157.09 3083.36 L 4158.18 3086.23 M 4156.41 3085.27 L 4157.77 3085.27 M 4160.72 3083.77 L 4160.58 3083.5 L 4160.17 3083.36 L 4159.9 3083.36 L 4159.49 3083.5 L 4159.22 3083.91 L 4159.08 3084.59 L 4159.08 3085.27 L 4159.22 3085.82 L 4159.49 3086.09 L 4159.9 3086.23 L 4160.04 3086.23 L 4160.45 3086.09 L 4160.72 3085.82 L 4160.85 3085.41 L 4160.85 3085.27 L 4160.72 3084.86 L 4160.45 3084.59 L 4160.04 3084.45 L 4159.9 3084.45 L 4159.49 3084.59 L 4159.22 3084.86 L 4159.08 3085.27" fill="none" layerid="3"  stroke-linecap="round" stroke-width="0.8" /><path d="M 4157.09 3093.36 L 4156 3096.23 M 4157.09 3093.36 L 4158.18 3096.23 M 4156.41 3095.27 L 4157.77 3095.27 M 4160.99 3093.36 L 4159.63 3096.23 M 4159.08 3093.36 L 4160.99 3093.36" fill="none" layerid="3"  stroke-linecap="round" stroke-width="0.8" /><path d="M 4162.64 3050.68 L 4162.5 3050.27 L 4162.23 3050.14 L 4161.95 3050.14 L 4161.68 3050.27 L 4161.55 3050.55 L 4161.41 3051.09 L 4161.27 3051.5 L 4161 3051.77 L 4160.73 3051.91 L 4160.32 3051.91 L 4160.05 3051.77 L 4159.91 3051.64 L 4159.77 3051.23 L 4159.77 3050.68 L 4159.91 3050.27 L 4160.05 3050.14 L 4160.32 3050 L 4160.73 3050 L 4161 3050.14 L 4161.27 3050.41 L 4161.41 3050.82 L 4161.55 3051.36 L 4161.68 3051.64 L 4161.95 3051.77 L 4162.23 3051.77 L 4162.5 3051.64 L 4162.64 3051.23 L 4162.64 3050.68" fill="none" layerid="3"  stroke-linecap="round" stroke-width="0.8" /><path d="M 4151.68 3051.77 L 4151.27 3051.64 L 4151 3051.36 L 4150.86 3050.95 L 4150.86 3050.82 L 4151 3050.41 L 4151.27 3050.14 L 4151.68 3050 L 4151.82 3050 L 4152.23 3050.14 L 4152.5 3050.41 L 4152.64 3050.82 L 4152.64 3050.95 L 4152.5 3051.36 L 4152.23 3051.64 L 4151.68 3051.77 L 4151 3051.77 L 4150.32 3051.64 L 4149.91 3051.36 L 4149.77 3050.95 L 4149.77 3050.68 L 4149.91 3050.27 L 4150.18 3050.14" fill="none" layerid="3"  stroke-linecap="round" stroke-width="0.8" /><path d="M 4162.09 3097.5 L 4162.23 3097.77 L 4162.64 3098.18 L 4159.77 3098.18 M 4162.09 3099.08 L 4162.23 3099.35 L 4162.64 3099.76 L 4159.77 3099.76" fill="none" layerid="3"  stroke-linecap="round" stroke-width="0.8" /><path d="M 4152.09 3097.5 L 4152.23 3097.77 L 4152.64 3098.18 L 4149.77 3098.18 M 4152.64 3099.9 L 4152.5 3099.49 L 4152.09 3099.22 L 4151.41 3099.08 L 4151 3099.08 L 4150.32 3099.22 L 4149.91 3099.49 L 4149.77 3099.9 L 4149.77 3100.17 L 4149.91 3100.58 L 4150.32 3100.85 L 4151 3100.99 L 4151.41 3100.99 L 4152.09 3100.85 L 4152.5 3100.58 L 4152.64 3100.17 L 4152.64 3099.9" fill="none" layerid="3"  stroke-linecap="round" stroke-width="0.8" /><path d="M 4158.05 3054.05 L 4157.91 3053.77 L 4157.64 3053.5 L 4157.36 3053.36 L 4156.82 3053.36 L 4156.55 3053.5 L 4156.27 3053.77 L 4156.14 3054.05 L 4156 3054.45 L 4156 3055.14 L 4156.14 3055.55 L 4156.27 3055.82 L 4156.55 3056.09 L 4156.82 3056.23 L 4157.36 3056.23 L 4157.64 3056.09 L 4157.91 3055.82 L 4158.05 3055.55 L 4158.05 3055.14 M 4157.36 3055.14 L 4158.05 3055.14 M 4158.95 3053.36 L 4158.95 3056.23 M 4158.95 3053.36 L 4160.85 3056.23 M 4160.85 3053.36 L 4160.85 3056.23 M 4161.75 3053.36 L 4161.75 3056.23 M 4161.75 3053.36 L 4162.71 3053.36 L 4163.12 3053.5 L 4163.39 3053.77 L 4163.53 3054.05 L 4163.66 3054.45 L 4163.66 3055.14 L 4163.53 3055.55 L 4163.39 3055.82 L 4163.12 3056.09 L 4162.71 3056.23 L 4161.75 3056.23" fill="none" layerid="3"  stroke-linecap="round" stroke-width="0.8" /><path d="M 4266 3043.36 L 4266 3046.23 M 4266 3043.36 L 4266.95 3043.36 L 4267.36 3043.5 L 4267.64 3043.77 L 4267.77 3044.05 L 4267.91 3044.45 L 4267.91 3045.14 L 4267.77 3045.55 L 4267.64 3045.82 L 4267.36 3046.09 L 4266.95 3046.23 L 4266 3046.23 M 4269.76 3043.36 L 4269.76 3046.23 M 4268.81 3043.36 L 4270.72 3043.36 M 4271.62 3043.36 L 4271.62 3046.23 M 4271.62 3043.36 L 4272.85 3043.36 L 4273.25 3043.5 L 4273.39 3043.64 L 4273.53 3043.91 L 4273.53 3044.18 L 4273.39 3044.45 L 4273.25 3044.59 L 4272.85 3044.73 L 4271.62 3044.73 M 4272.57 3044.73 L 4273.53 3046.23" fill="none" layerid="3"  stroke-linecap="round" stroke-width="0.8" /><path d="M 4268.05 3104.05 L 4267.91 3103.77 L 4267.64 3103.5 L 4267.36 3103.36 L 4266.82 3103.36 L 4266.55 3103.5 L 4266.27 3103.77 L 4266.14 3104.05 L 4266 3104.45 L 4266 3105.14 L 4266.14 3105.55 L 4266.27 3105.82 L 4266.55 3106.09 L 4266.82 3106.23 L 4267.36 3106.23 L 4267.64 3106.09 L 4267.91 3105.82 L 4268.05 3105.55 L 4268.05 3105.14 M 4267.36 3105.14 L 4268.05 3105.14 M 4268.95 3103.36 L 4268.95 3106.23 M 4268.95 3103.36 L 4270.85 3106.23 M 4270.85 3103.36 L 4270.85 3106.23 M 4271.75 3103.36 L 4271.75 3106.23 M 4271.75 3103.36 L 4272.71 3103.36 L 4273.12 3103.5 L 4273.39 3103.77 L 4273.53 3104.05 L 4273.66 3104.45 L 4273.66 3105.14 L 4273.53 3105.55 L 4273.39 3105.82 L 4273.12 3106.09 L 4272.71 3106.23 L 4271.75 3106.23" fill="none" layerid="3"  stroke-linecap="round" stroke-width="0.8" /><path d="M 4267.64 3055.95 L 4264.77 3055.95 M 4267.64 3055 L 4267.64 3056.91 M 4267.64 3057.81 L 4264.77 3059.72 M 4267.64 3059.72 L 4264.77 3057.81 M 4267.64 3061.44 L 4267.5 3061.03 L 4267.09 3060.75 L 4266.41 3060.62 L 4266 3060.62 L 4265.32 3060.75 L 4264.91 3061.03 L 4264.77 3061.44 L 4264.77 3061.71 L 4264.91 3062.12 L 4265.32 3062.39 L 4266 3062.53 L 4266.41 3062.53 L 4267.09 3062.39 L 4267.5 3062.12 L 4267.64 3061.71 L 4267.64 3061.44" fill="none" layerid="3"  stroke-linecap="round" stroke-width="0.8" /><path d="M 4267.64 3065 L 4264.77 3065 M 4267.64 3065 L 4267.64 3066.23 L 4267.5 3066.64 L 4267.36 3066.77 L 4267.09 3066.91 L 4266.82 3066.91 L 4266.55 3066.77 L 4266.41 3066.64 L 4266.27 3066.23 L 4266.27 3065 M 4266.27 3065.95 L 4264.77 3066.91 M 4267.64 3067.81 L 4264.77 3069.72 M 4267.64 3069.72 L 4264.77 3067.81 M 4267.64 3070.62 L 4264.77 3070.62" fill="none" layerid="3"  stroke-linecap="round" stroke-width="0.8" /><path d="M 4267.64 3075 L 4264.77 3076.09 M 4267.64 3077.18 L 4264.77 3076.09 M 4266.95 3080.13 L 4267.23 3079.99 L 4267.5 3079.72 L 4267.64 3079.45 L 4267.64 3078.9 L 4267.5 3078.63 L 4267.23 3078.35 L 4266.95 3078.22 L 4266.55 3078.08 L 4265.86 3078.08 L 4265.45 3078.22 L 4265.18 3078.35 L 4264.91 3078.63 L 4264.77 3078.9 L 4264.77 3079.45 L 4264.91 3079.72 L 4265.18 3079.99 L 4265.45 3080.13 M 4266.95 3083.07 L 4267.23 3082.94 L 4267.5 3082.66 L 4267.64 3082.39 L 4267.64 3081.85 L 4267.5 3081.57 L 4267.23 3081.3 L 4266.95 3081.16 L 4266.55 3081.03 L 4265.86 3081.03 L 4265.45 3081.16 L 4265.18 3081.3 L 4264.91 3081.57 L 4264.77 3081.85 L 4264.77 3082.39 L 4264.91 3082.66 L 4265.18 3082.94 L 4265.45 3083.07" fill="none" layerid="3"  stroke-linecap="round" stroke-width="0.8" /><path d="M 4266.95 3087.05 L 4267.23 3086.91 L 4267.5 3086.64 L 4267.64 3086.36 L 4267.64 3085.82 L 4267.5 3085.55 L 4267.23 3085.27 L 4266.95 3085.14 L 4266.55 3085 L 4265.86 3085 L 4265.45 3085.14 L 4265.18 3085.27 L 4264.91 3085.55 L 4264.77 3085.82 L 4264.77 3086.36 L 4264.91 3086.64 L 4265.18 3086.91 L 4265.45 3087.05 L 4265.86 3087.05 M 4265.86 3086.36 L 4265.86 3087.05 M 4267.64 3087.95 L 4264.77 3087.95 M 4267.64 3087.95 L 4264.77 3089.85 M 4267.64 3089.85 L 4264.77 3089.85 M 4267.64 3090.75 L 4264.77 3090.75 M 4267.64 3090.75 L 4267.64 3091.71 L 4267.5 3092.12 L 4267.23 3092.39 L 4266.95 3092.53 L 4266.55 3092.66 L 4265.86 3092.66 L 4265.45 3092.53 L 4265.18 3092.39 L 4264.91 3092.12 L 4264.77 3091.71 L 4264.77 3090.75" fill="none" layerid="3"  stroke-linecap="round" stroke-width="0.8" />      <g c_partid="part_pad" c_type="pinpart" layerid="11" c_etype="pinpart">  <ellipse  xmlns="http://www.w3.org/2000/svg" cx="4261" cy="3045" rx="3.7" ry="3.7" stroke-width="0"  />  <circle cx="4261" cy="3045" r="2" stroke-width="0" /></g>      <g c_partid="part_pad" c_type="pinpart" layerid="11" c_etype="pinpart">  <ellipse  xmlns="http://www.w3.org/2000/svg" cx="4251" cy="3045" rx="3.7" ry="3.7" stroke-width="0"  />  <circle cx="4251" cy="3045" r="2" stroke-width="0" /></g>      <g c_partid="part_pad" c_type="pinpart" layerid="11" c_etype="pinpart">  <ellipse  xmlns="http://www.w3.org/2000/svg" cx="4241" cy="3045" rx="3.7" ry="3.7" stroke-width="0"  />  <circle cx="4241" cy="3045" r="2" stroke-width="0" /></g>      <g c_partid="part_pad" c_type="pinpart" layerid="11" c_etype="pinpart">  <ellipse  xmlns="http://www.w3.org/2000/svg" cx="4231" cy="3045" rx="3.7" ry="3.7" stroke-width="0"  />  <circle cx="4231" cy="3045" r="2" stroke-width="0" /></g>      <g c_partid="part_pad" c_type="pinpart" layerid="11" c_etype="pinpart">  <ellipse  xmlns="http://www.w3.org/2000/svg" cx="4221" cy="3045" rx="3.7" ry="3.7" stroke-width="0"  />  <circle cx="4221" cy="3045" r="2" stroke-width="0" /></g>      <g c_partid="part_pad" c_type="pinpart" layerid="11" c_etype="pinpart">  <ellipse  xmlns="http://www.w3.org/2000/svg" cx="4211" cy="3045" rx="3.7" ry="3.7" stroke-width="0"  />  <circle cx="4211" cy="3045" r="2" stroke-width="0" /></g>      <g c_partid="part_pad" c_type="pinpart" layerid="11" c_etype="pinpart">  <ellipse  xmlns="http://www.w3.org/2000/svg" cx="4201" cy="3045" rx="3.7" ry="3.7" stroke-width="0"  />  <circle cx="4201" cy="3045" r="2" stroke-width="0" /></g>      <g c_partid="part_pad" c_type="pinpart" layerid="11" c_etype="pinpart">  <ellipse  xmlns="http://www.w3.org/2000/svg" cx="4191" cy="3045" rx="3.7" ry="3.7" stroke-width="0"  />  <circle cx="4191" cy="3045" r="2" stroke-width="0" /></g>      <g c_partid="part_pad" c_type="pinpart" layerid="11" c_etype="pinpart">  <ellipse  xmlns="http://www.w3.org/2000/svg" cx="4181" cy="3045" rx="3.7" ry="3.7" stroke-width="0"  />  <circle cx="4181" cy="3045" r="2" stroke-width="0" /></g>      <g c_partid="part_pad" c_type="pinpart" layerid="11" c_etype="pinpart">  <ellipse  xmlns="http://www.w3.org/2000/svg" cx="4171" cy="3045" rx="3.7" ry="3.7" stroke-width="0"  />  <circle cx="4171" cy="3045" r="2" stroke-width="0" /></g>      <g c_partid="part_pad" c_type="pinpart" layerid="11" c_etype="pinpart">  <ellipse  xmlns="http://www.w3.org/2000/svg" cx="4161" cy="3045" rx="3.7" ry="3.7" stroke-width="0"  />  <circle cx="4161" cy="3045" r="2" stroke-width="0" /></g>      <g c_partid="part_pad" c_type="pinpart" layerid="11" c_etype="pinpart">  <ellipse  xmlns="http://www.w3.org/2000/svg" cx="4151" cy="3045" rx="3.7" ry="3.7" stroke-width="0"  />  <circle cx="4151" cy="3045" r="2" stroke-width="0" /></g>      <g c_partid="part_pad" c_type="pinpart" layerid="11" c_etype="pinpart">  <ellipse  xmlns="http://www.w3.org/2000/svg" cx="4151" cy="3105" rx="3.7" ry="3.7" stroke-width="0"  />  <circle cx="4151" cy="3105" r="2" stroke-width="0" /></g>      <g c_partid="part_pad" c_type="pinpart" layerid="11" c_etype="pinpart">  <ellipse  xmlns="http://www.w3.org/2000/svg" cx="4161" cy="3105" rx="3.7" ry="3.7" stroke-width="0"  />  <circle cx="4161" cy="3105" r="2" stroke-width="0" /></g>      <g c_partid="part_pad" c_type="pinpart" layerid="11" c_etype="pinpart">  <ellipse  xmlns="http://www.w3.org/2000/svg" cx="4171" cy="3105" rx="3.7" ry="3.7" stroke-width="0"  />  <circle cx="4171" cy="3105" r="2" stroke-width="0" /></g>      <g c_partid="part_pad" c_type="pinpart" layerid="11" c_etype="pinpart">  <ellipse  xmlns="http://www.w3.org/2000/svg" cx="4181" cy="3105" rx="3.7" ry="3.7" stroke-width="0"  />  <circle cx="4181" cy="3105" r="2" stroke-width="0" /></g>      <g c_partid="part_pad" c_type="pinpart" layerid="11" c_etype="pinpart">  <ellipse  xmlns="http://www.w3.org/2000/svg" cx="4191" cy="3105" rx="3.7" ry="3.7" stroke-width="0"  />  <circle cx="4191" cy="3105" r="2" stroke-width="0" /></g>      <g c_partid="part_pad" c_type="pinpart" layerid="11" c_etype="pinpart">  <ellipse  xmlns="http://www.w3.org/2000/svg" cx="4201" cy="3105" rx="3.7" ry="3.7" stroke-width="0"  />  <circle cx="4201" cy="3105" r="2" stroke-width="0" /></g>      <g c_partid="part_pad" c_type="pinpart" layerid="11" c_etype="pinpart">  <ellipse  xmlns="http://www.w3.org/2000/svg" cx="4211" cy="3105" rx="3.7" ry="3.7" stroke-width="0"  />  <circle cx="4211" cy="3105" r="2" stroke-width="0" /></g>      <g c_partid="part_pad" c_type="pinpart" layerid="11" c_etype="pinpart">  <ellipse  xmlns="http://www.w3.org/2000/svg" cx="4221" cy="3105" rx="3.7" ry="3.7" stroke-width="0"  />  <circle cx="4221" cy="3105" r="2" stroke-width="0" /></g>      <g c_partid="part_pad" c_type="pinpart" layerid="11" c_etype="pinpart">  <ellipse  xmlns="http://www.w3.org/2000/svg" cx="4231" cy="3105" rx="3.7" ry="3.7" stroke-width="0"  />  <circle cx="4231" cy="3105" r="2" stroke-width="0" /></g>      <g c_partid="part_pad" c_type="pinpart" layerid="11" c_etype="pinpart">  <ellipse  xmlns="http://www.w3.org/2000/svg" cx="4241" cy="3105" rx="3.7" ry="3.7" stroke-width="0"  />  <circle cx="4241" cy="3105" r="2" stroke-width="0" /></g>      <g c_partid="part_pad" c_type="pinpart" layerid="11" c_etype="pinpart">  <ellipse  xmlns="http://www.w3.org/2000/svg" cx="4251" cy="3105" rx="3.7" ry="3.7" stroke-width="0"  />  <circle cx="4251" cy="3105" r="2" stroke-width="0" /></g>      <g c_partid="part_pad" c_type="pinpart" layerid="11" c_etype="pinpart">  <ellipse  xmlns="http://www.w3.org/2000/svg" cx="4261" cy="3105" rx="3.7" ry="3.7" stroke-width="0"  />  <circle cx="4261" cy="3105" r="2" stroke-width="0" /></g>      <g c_partid="part_pad" c_type="pinpart" layerid="11" c_etype="pinpart">  <ellipse  xmlns="http://www.w3.org/2000/svg" cx="4151" cy="3085" rx="3.7" ry="3.7" stroke-width="0"  />  <circle cx="4151" cy="3085" r="2" stroke-width="0" /></g>      <g c_partid="part_pad" c_type="pinpart" layerid="11" c_etype="pinpart">  <ellipse  xmlns="http://www.w3.org/2000/svg" cx="4151" cy="3095" rx="3.7" ry="3.7" stroke-width="0"  />  <circle cx="4151" cy="3095" r="2" stroke-width="0" /></g>      <g c_partid="part_pad" c_type="pinpart" layerid="11" c_etype="pinpart">  <ellipse  xmlns="http://www.w3.org/2000/svg" cx="4151" cy="3075" rx="3.7" ry="3.7" stroke-width="0"  />  <circle cx="4151" cy="3075" r="2" stroke-width="0" /></g>      <g c_partid="part_pad" c_type="pinpart" layerid="11" c_etype="pinpart">  <ellipse  xmlns="http://www.w3.org/2000/svg" cx="4151" cy="3065" rx="3.7" ry="3.7" stroke-width="0"  />  <circle cx="4151" cy="3065" r="2" stroke-width="0" /></g>      <g c_partid="part_pad" c_type="pinpart" layerid="11" c_etype="pinpart">  <ellipse  xmlns="http://www.w3.org/2000/svg" cx="4151" cy="3055" rx="3.7" ry="3.7" stroke-width="0"  />  <circle cx="4151" cy="3055" r="2" stroke-width="0" /></g>      <g c_partid="part_pad" c_type="pinpart" layerid="11" c_etype="pinpart">  <ellipse  xmlns="http://www.w3.org/2000/svg" cx="4271" cy="3050" rx="3.7" ry="3.7" stroke-width="0"  />  <circle cx="4271" cy="3050" r="2" stroke-width="0" /></g>      <g c_partid="part_pad" c_type="pinpart" layerid="11" c_etype="pinpart">  <ellipse  xmlns="http://www.w3.org/2000/svg" cx="4271" cy="3060" rx="3.7" ry="3.7" stroke-width="0"  />  <circle cx="4271" cy="3060" r="2" stroke-width="0" /></g>      <g c_partid="part_pad" c_type="pinpart" layerid="11" c_etype="pinpart">  <ellipse  xmlns="http://www.w3.org/2000/svg" cx="4271" cy="3070" rx="3.7" ry="3.7" stroke-width="0"  />  <circle cx="4271" cy="3070" r="2" stroke-width="0" /></g>      <g c_partid="part_pad" c_type="pinpart" layerid="11" c_etype="pinpart">  <ellipse  xmlns="http://www.w3.org/2000/svg" cx="4271" cy="3080" rx="3.7" ry="3.7" stroke-width="0"  />  <circle cx="4271" cy="3080" r="2" stroke-width="0" /></g>      <g c_partid="part_pad" c_type="pinpart" layerid="11" c_etype="pinpart">  <ellipse  xmlns="http://www.w3.org/2000/svg" cx="4271" cy="3090" rx="3.7" ry="3.7" stroke-width="0"  />  <circle cx="4271" cy="3090" r="2" stroke-width="0" /></g>      <g c_partid="part_pad" c_type="pinpart" layerid="11" c_etype="pinpart">  <ellipse  xmlns="http://www.w3.org/2000/svg" cx="4271" cy="3100" rx="3.7" ry="3.7" stroke-width="0"  />  <circle cx="4271" cy="3100" r="2" stroke-width="0" /></g><path d="M 4166 3142.55 L 4166 3145.61 L 4166.2 3146.23 L 4166.61 3146.64 L 4167.23 3146.84 L 4167.64 3146.84 L 4168.25 3146.64 L 4168.66 3146.23 L 4168.86 3145.61 L 4168.86 3142.55 M 4172.67 3142.55 L 4170.62 3142.55 L 4170.42 3144.39 L 4170.62 3144.18 L 4171.24 3143.98 L 4171.85 3143.98 L 4172.46 3144.18 L 4172.87 3144.59 L 4173.08 3145.2 L 4173.08 3145.61 L 4172.87 3146.23 L 4172.46 3146.64 L 4171.85 3146.84 L 4171.24 3146.84 L 4170.62 3146.64 L 4170.42 3146.43 L 4170.21 3146.02" fill="none" layerid="3"  stroke-linecap="round" stroke-width="0.7" /> <polyline points="4177 3130 4177 3120" stroke-width="1"   stroke-linecap="round" fill="none" layerid="3"/>  <path d="M 4177 3130 A 12.31 12.31 0 1 1 4177 3120" layerid="3" fill="none"  stroke-linecap="round" stroke-width="1"/>  <path d="M 4167 3133 A 6.03 6.03 0 0 1 4163 3132" layerid="3" fill="none"  stroke-linecap="round" stroke-width="1"/>      <circle cx="4166" cy="3125" r="10.3" layerid="3" stroke-width="1" fill="none" /><path d="M 4164.77 3117.23 L 4164.77 3114.77 M 4166 3116 L 4163.55 3116" fill="none" layerid="3"  stroke-linecap="round" stroke-width="0.6" /><path d="M 4172 3117 L 4169.55 3117" fill="none" layerid="3"  stroke-linecap="round" stroke-width="0.6" />      <g c_partid="part_pad" c_type="pinpart" layerid="11" c_etype="pinpart">  <polygon  points="4164.3 3128.3 4157.7 3128.3 4157.7 3121.7 4164.3 3121.7" stroke-linecap="round" stroke-width="0" />  <circle cx="4161" cy="3125" r="1.57" stroke-width="0" /></g>      <g c_partid="part_pad" c_type="pinpart" layerid="11" c_etype="pinpart">  <ellipse  xmlns="http://www.w3.org/2000/svg" cx="4171" cy="3125" rx="3.3" ry="3.3" stroke-width="0"  />  <circle cx="4171" cy="3125" r="1.57" stroke-width="0" /></g><path d="M 4237 3117.36 L 4238.09 3120.23 M 4239.18 3117.36 L 4238.09 3120.23 M 4242.13 3118.05 L 4241.99 3117.77 L 4241.72 3117.5 L 4241.45 3117.36 L 4240.9 3117.36 L 4240.63 3117.5 L 4240.35 3117.77 L 4240.22 3118.05 L 4240.08 3118.45 L 4240.08 3119.14 L 4240.22 3119.55 L 4240.35 3119.82 L 4240.63 3120.09 L 4240.9 3120.23 L 4241.45 3120.23 L 4241.72 3120.09 L 4241.99 3119.82 L 4242.13 3119.55 M 4245.07 3118.05 L 4244.94 3117.77 L 4244.66 3117.5 L 4244.39 3117.36 L 4243.85 3117.36 L 4243.57 3117.5 L 4243.3 3117.77 L 4243.16 3118.05 L 4243.03 3118.45 L 4243.03 3119.14 L 4243.16 3119.55 L 4243.3 3119.82 L 4243.57 3120.09 L 4243.85 3120.23 L 4244.39 3120.23 L 4244.66 3120.09 L 4244.94 3119.82 L 4245.07 3119.55" fill="none" layerid="3"  stroke-linecap="round" stroke-width="0.8" /><path d="M 4249.05 3118.05 L 4248.91 3117.77 L 4248.64 3117.5 L 4248.36 3117.36 L 4247.82 3117.36 L 4247.55 3117.5 L 4247.27 3117.77 L 4247.14 3118.05 L 4247 3118.45 L 4247 3119.14 L 4247.14 3119.55 L 4247.27 3119.82 L 4247.55 3120.09 L 4247.82 3120.23 L 4248.36 3120.23 L 4248.64 3120.09 L 4248.91 3119.82 L 4249.05 3119.55 L 4249.05 3119.14 M 4248.36 3119.14 L 4249.05 3119.14 M 4249.95 3117.36 L 4249.95 3120.23 M 4249.95 3117.36 L 4251.85 3120.23 M 4251.85 3117.36 L 4251.85 3120.23 M 4252.75 3117.36 L 4252.75 3120.23 M 4252.75 3117.36 L 4253.71 3117.36 L 4254.12 3117.5 L 4254.39 3117.77 L 4254.53 3118.05 L 4254.66 3118.45 L 4254.66 3119.14 L 4254.53 3119.55 L 4254.39 3119.82 L 4254.12 3120.09 L 4253.71 3120.23 L 4252.75 3120.23" fill="none" layerid="3"  stroke-linecap="round" stroke-width="0.8" /><path d="M 4258.95 3117.36 L 4258.95 3120.23 M 4258 3117.36 L 4259.91 3117.36 M 4260.81 3117.36 L 4262.72 3120.23 M 4262.72 3117.36 L 4260.81 3120.23" fill="none" layerid="3"  stroke-linecap="round" stroke-width="0.8" /><path d="M 4268 3117.36 L 4268 3120.23 M 4268 3117.36 L 4269.23 3117.36 L 4269.64 3117.5 L 4269.77 3117.64 L 4269.91 3117.91 L 4269.91 3118.18 L 4269.77 3118.45 L 4269.64 3118.59 L 4269.23 3118.73 L 4268 3118.73 M 4268.95 3118.73 L 4269.91 3120.23 M 4270.81 3117.36 L 4272.72 3120.23 M 4272.72 3117.36 L 4270.81 3120.23" fill="none" layerid="3"  stroke-linecap="round" stroke-width="0.8" /><path d="M 4240 3128.82 L 4240 3132.64 M 4240 3128.82 L 4241.64 3128.82 L 4242.18 3129 L 4242.36 3129.18 L 4242.55 3129.55 L 4242.55 3129.91 L 4242.36 3130.27 L 4242.18 3130.45 L 4241.64 3130.64 M 4240 3130.64 L 4241.64 3130.64 L 4242.18 3130.82 L 4242.36 3131 L 4242.55 3131.36 L 4242.55 3131.91 L 4242.36 3132.27 L 4242.18 3132.45 L 4241.64 3132.64 L 4240 3132.64 M 4243.75 3128.82 L 4243.75 3132.64 M 4243.75 3132.64 L 4245.93 3132.64 M 4247.13 3128.82 L 4247.13 3131.55 L 4247.31 3132.09 L 4247.67 3132.45 L 4248.22 3132.64 L 4248.58 3132.64 L 4249.13 3132.45 L 4249.49 3132.09 L 4249.67 3131.55 L 4249.67 3128.82 M 4250.87 3128.82 L 4250.87 3132.64 M 4250.87 3128.82 L 4253.24 3128.82 M 4250.87 3130.64 L 4252.33 3130.64 M 4250.87 3132.64 L 4253.24 3132.64 M 4255.71 3128.82 L 4255.71 3132.64 M 4254.44 3128.82 L 4256.98 3128.82 M 4259.27 3128.82 L 4258.91 3129 L 4258.55 3129.36 L 4258.36 3129.73 L 4258.18 3130.27 L 4258.18 3131.18 L 4258.36 3131.73 L 4258.55 3132.09 L 4258.91 3132.45 L 4259.27 3132.64 L 4260 3132.64 L 4260.36 3132.45 L 4260.73 3132.09 L 4260.91 3131.73 L 4261.09 3131.18 L 4261.09 3130.27 L 4260.91 3129.73 L 4260.73 3129.36 L 4260.36 3129 L 4260 3128.82 L 4259.27 3128.82 M 4263.38 3128.82 L 4263.02 3129 L 4262.65 3129.36 L 4262.47 3129.73 L 4262.29 3130.27 L 4262.29 3131.18 L 4262.47 3131.73 L 4262.65 3132.09 L 4263.02 3132.45 L 4263.38 3132.64 L 4264.11 3132.64 L 4264.47 3132.45 L 4264.84 3132.09 L 4265.02 3131.73 L 4265.2 3131.18 L 4265.2 3130.27 L 4265.02 3129.73 L 4264.84 3129.36 L 4264.47 3129 L 4264.11 3128.82 L 4263.38 3128.82 M 4267.67 3128.82 L 4267.67 3132.64 M 4266.4 3128.82 L 4268.95 3128.82 M 4270.15 3128.82 L 4270.15 3132.64 M 4272.69 3128.82 L 4272.69 3132.64 M 4270.15 3130.64 L 4272.69 3130.64" fill="none" layerid="3"  stroke-linecap="round" stroke-width="0.8" /><path d="M 4189.09 3117.36 L 4188 3120.23 M 4189.09 3117.36 L 4190.18 3120.23 M 4188.41 3119.27 L 4189.77 3119.27 M 4191.9 3117.36 L 4191.49 3117.5 L 4191.22 3117.91 L 4191.08 3118.59 L 4191.08 3119 L 4191.22 3119.68 L 4191.49 3120.09 L 4191.9 3120.23 L 4192.17 3120.23 L 4192.58 3120.09 L 4192.85 3119.68 L 4192.99 3119 L 4192.99 3118.59 L 4192.85 3117.91 L 4192.58 3117.5 L 4192.17 3117.36 L 4191.9 3117.36" fill="none" layerid="3"  stroke-linecap="round" stroke-width="0.8" /><path d="M 4198 3117.36 L 4198 3120.23 M 4198 3117.36 L 4198.95 3117.36 L 4199.36 3117.5 L 4199.64 3117.77 L 4199.77 3118.05 L 4199.91 3118.45 L 4199.91 3119.14 L 4199.77 3119.55 L 4199.64 3119.82 L 4199.36 3120.09 L 4198.95 3120.23 L 4198 3120.23 M 4201.63 3117.36 L 4201.22 3117.5 L 4200.95 3117.91 L 4200.81 3118.59 L 4200.81 3119 L 4200.95 3119.68 L 4201.22 3120.09 L 4201.63 3120.23 L 4201.9 3120.23 L 4202.31 3120.09 L 4202.58 3119.68 L 4202.72 3119 L 4202.72 3118.59 L 4202.58 3117.91 L 4202.31 3117.5 L 4201.9 3117.36 L 4201.63 3117.36" fill="none" layerid="3"  stroke-linecap="round" stroke-width="0.8" /><path d="M 4209.05 3118.05 L 4208.91 3117.77 L 4208.64 3117.5 L 4208.36 3117.36 L 4207.82 3117.36 L 4207.55 3117.5 L 4207.27 3117.77 L 4207.14 3118.05 L 4207 3118.45 L 4207 3119.14 L 4207.14 3119.55 L 4207.27 3119.82 L 4207.55 3120.09 L 4207.82 3120.23 L 4208.36 3120.23 L 4208.64 3120.09 L 4208.91 3119.82 L 4209.05 3119.55 L 4209.05 3119.14 M 4208.36 3119.14 L 4209.05 3119.14 M 4209.95 3117.36 L 4209.95 3120.23 M 4209.95 3117.36 L 4211.85 3120.23 M 4211.85 3117.36 L 4211.85 3120.23 M 4212.75 3117.36 L 4212.75 3120.23 M 4212.75 3117.36 L 4213.71 3117.36 L 4214.12 3117.5 L 4214.39 3117.77 L 4214.53 3118.05 L 4214.66 3118.45 L 4214.66 3119.14 L 4214.53 3119.55 L 4214.39 3119.82 L 4214.12 3120.09 L 4213.71 3120.23 L 4212.75 3120.23" fill="none" layerid="3"  stroke-linecap="round" stroke-width="0.8" /><path d="M 4217 3117.36 L 4218.09 3120.23 M 4219.18 3117.36 L 4218.09 3120.23 M 4222.13 3118.05 L 4221.99 3117.77 L 4221.72 3117.5 L 4221.45 3117.36 L 4220.9 3117.36 L 4220.63 3117.5 L 4220.35 3117.77 L 4220.22 3118.05 L 4220.08 3118.45 L 4220.08 3119.14 L 4220.22 3119.55 L 4220.35 3119.82 L 4220.63 3120.09 L 4220.9 3120.23 L 4221.45 3120.23 L 4221.72 3120.09 L 4221.99 3119.82 L 4222.13 3119.55 M 4225.07 3118.05 L 4224.94 3117.77 L 4224.66 3117.5 L 4224.39 3117.36 L 4223.85 3117.36 L 4223.57 3117.5 L 4223.3 3117.77 L 4223.16 3118.05 L 4223.03 3118.45 L 4223.03 3119.14 L 4223.16 3119.55 L 4223.3 3119.82 L 4223.57 3120.09 L 4223.85 3120.23 L 4224.39 3120.23 L 4224.66 3120.09 L 4224.94 3119.82 L 4225.07 3119.55" fill="none" layerid="3"  stroke-linecap="round" stroke-width="0.8" /><path d="M 4197.55 3129.36 L 4197.18 3129 L 4196.64 3128.82 L 4195.91 3128.82 L 4195.36 3129 L 4195 3129.36 L 4195 3129.73 L 4195.18 3130.09 L 4195.36 3130.27 L 4195.73 3130.45 L 4196.82 3130.82 L 4197.18 3131 L 4197.36 3131.18 L 4197.55 3131.55 L 4197.55 3132.09 L 4197.18 3132.45 L 4196.64 3132.64 L 4195.91 3132.64 L 4195.36 3132.45 L 4195 3132.09 M 4198.75 3128.82 L 4198.75 3132.64 M 4198.75 3128.82 L 4201.11 3128.82 M 4198.75 3130.64 L 4200.2 3130.64 M 4198.75 3132.64 L 4201.11 3132.64 M 4202.31 3128.82 L 4202.31 3132.64 M 4202.31 3128.82 L 4204.85 3132.64 M 4204.85 3128.82 L 4204.85 3132.64 M 4208.6 3129.36 L 4208.24 3129 L 4207.69 3128.82 L 4206.96 3128.82 L 4206.42 3129 L 4206.05 3129.36 L 4206.05 3129.73 L 4206.24 3130.09 L 4206.42 3130.27 L 4206.78 3130.45 L 4207.87 3130.82 L 4208.24 3131 L 4208.42 3131.18 L 4208.6 3131.55 L 4208.6 3132.09 L 4208.24 3132.45 L 4207.69 3132.64 L 4206.96 3132.64 L 4206.42 3132.45 L 4206.05 3132.09 M 4210.89 3128.82 L 4210.53 3129 L 4210.16 3129.36 L 4209.98 3129.73 L 4209.8 3130.27 L 4209.8 3131.18 L 4209.98 3131.73 L 4210.16 3132.09 L 4210.53 3132.45 L 4210.89 3132.64 L 4211.62 3132.64 L 4211.98 3132.45 L 4212.35 3132.09 L 4212.53 3131.73 L 4212.71 3131.18 L 4212.71 3130.27 L 4212.53 3129.73 L 4212.35 3129.36 L 4211.98 3129 L 4211.62 3128.82 L 4210.89 3128.82 M 4213.91 3128.82 L 4213.91 3132.64 M 4213.91 3128.82 L 4215.55 3128.82 L 4216.09 3129 L 4216.27 3129.18 L 4216.45 3129.55 L 4216.45 3129.91 L 4216.27 3130.27 L 4216.09 3130.45 L 4215.55 3130.64 L 4213.91 3130.64 M 4215.18 3130.64 L 4216.45 3132.64" fill="none" layerid="3"  stroke-linecap="round" stroke-width="0.8" /><path d="M 4208 3032.9999 L 4209.45 3036.8199 M 4210.91 3032.9999 L 4209.45 3036.8199 M 4213.75 3033.5399 L 4213.75 3036.8199 M 4212.11 3035.1799 L 4215.38 3035.1799" fill="none" layerid="3"  stroke-linecap="round" stroke-width="0.8" /><path d="M 4237 3032.9999 L 4238.45 3036.8199 M 4239.91 3032.9999 L 4238.45 3036.8199 M 4241.11 3035.1799 L 4244.38 3035.1799" fill="none" layerid="3"  stroke-linecap="round" stroke-width="0.8" /><path d="M 4191 3033.0001 L 4191 3036.8201 M 4191 3033.0001 L 4192.64 3033.0001 L 4193.18 3033.1801 L 4193.36 3033.3601 L 4193.55 3033.7301 L 4193.55 3034.2701 L 4193.36 3034.6301 L 4193.18 3034.8201 L 4192.64 3035.0001 L 4191 3035.0001 M 4194.75 3033.0001 L 4194.75 3035.7301 L 4194.93 3036.2701 L 4195.29 3036.6301 L 4195.84 3036.8201 L 4196.2 3036.8201 L 4196.75 3036.6301 L 4197.11 3036.2701 L 4197.29 3035.7301 L 4197.29 3033.0001 M 4198.49 3033.0001 L 4198.49 3036.8201 M 4198.49 3033.0001 L 4199.95 3036.8201 M 4201.4 3033.0001 L 4199.95 3036.8201 M 4201.4 3033.0001 L 4201.4 3036.8201 M 4202.6 3033.0001 L 4202.6 3036.8201 M 4202.6 3033.0001 L 4204.24 3033.0001 L 4204.78 3033.1801 L 4204.96 3033.3601 L 4205.15 3033.7301 L 4205.15 3034.2701 L 4204.96 3034.6301 L 4204.78 3034.8201 L 4204.24 3035.0001 L 4202.6 3035.0001" fill="none" layerid="3"  stroke-linecap="round" stroke-width="0.8" />      <g c_partid="part_pad" c_type="pinpart" layerid="11" c_etype="pinpart">  <ellipse  xmlns="http://www.w3.org/2000/svg" cx="4191" cy="3125" rx="3" ry="3" stroke-width="0"  />  <circle cx="4191" cy="3125" r="1.8" stroke-width="0" /></g>      <g c_partid="part_pad" c_type="pinpart" layerid="11" c_etype="pinpart">  <ellipse  xmlns="http://www.w3.org/2000/svg" cx="4201" cy="3125" rx="3" ry="3" stroke-width="0"  />  <circle cx="4201" cy="3125" r="1.8" stroke-width="0" /></g>      <g c_partid="part_pad" c_type="pinpart" layerid="11" c_etype="pinpart">  <ellipse  xmlns="http://www.w3.org/2000/svg" cx="4211" cy="3125" rx="3" ry="3" stroke-width="0"  />  <circle cx="4211" cy="3125" r="1.8" stroke-width="0" /></g>      <g c_partid="part_pad" c_type="pinpart" layerid="11" c_etype="pinpart">  <ellipse  xmlns="http://www.w3.org/2000/svg" cx="4221" cy="3125" rx="3" ry="3" stroke-width="0"  />  <circle cx="4221" cy="3125" r="1.8" stroke-width="0" /></g>      <g c_partid="part_pad" c_type="pinpart" layerid="11" c_etype="pinpart">  <ellipse  xmlns="http://www.w3.org/2000/svg" cx="4241" cy="3125" rx="3" ry="3" stroke-width="0"  />  <circle cx="4241" cy="3125" r="1.8" stroke-width="0" /></g>      <g c_partid="part_pad" c_type="pinpart" layerid="11" c_etype="pinpart">  <ellipse  xmlns="http://www.w3.org/2000/svg" cx="4251" cy="3125" rx="3" ry="3" stroke-width="0"  />  <circle cx="4251" cy="3125" r="1.8" stroke-width="0" /></g>      <g c_partid="part_pad" c_type="pinpart" layerid="11" c_etype="pinpart">  <ellipse  xmlns="http://www.w3.org/2000/svg" cx="4261" cy="3125" rx="3" ry="3" stroke-width="0"  />  <circle cx="4261" cy="3125" r="1.8" stroke-width="0" /></g>      <g c_partid="part_pad" c_type="pinpart" layerid="11" c_etype="pinpart">  <ellipse  xmlns="http://www.w3.org/2000/svg" cx="4271" cy="3125" rx="3" ry="3" stroke-width="0"  />  <circle cx="4271" cy="3125" r="1.8" stroke-width="0" /></g>      <g c_partid="part_pad" c_type="pinpart" layerid="11" c_etype="pinpart">  <ellipse  xmlns="http://www.w3.org/2000/svg" cx="4231" cy="3035" rx="3" ry="3" stroke-width="0"  />  <circle cx="4231" cy="3035" r="1.8" stroke-width="0" /></g>      <g c_partid="part_pad" c_type="pinpart" layerid="11" c_etype="pinpart">  <ellipse  xmlns="http://www.w3.org/2000/svg" cx="4221" cy="3035" rx="3" ry="3" stroke-width="0"  />  <circle cx="4221" cy="3035" r="1.8" stroke-width="0" /></g></g></svg>